<?xml version="1.0" encoding="UTF-8"?>
<!-- Generator: https://ezgif.com/png-to-svg -->
<svg version="1.1" xmlns="http://www.w3.org/2000/svg" width="1080" height="1080">
<path d="M0 0 C36.26 -0.12 36.26 -0.12 51.52 -0.15 C62.04 -0.16 72.55 -0.19 83.06 -0.23 C90.72 -0.26 98.38 -0.28 106.04 -0.28 C110.09 -0.29 114.14 -0.3 118.19 -0.32 C122.01 -0.34 125.84 -0.34 129.66 -0.34 C131.05 -0.34 132.45 -0.35 133.84 -0.36 C146.66 -0.46 158.79 1.37 170.81 5.94 C171.52 6.2 172.22 6.45 172.95 6.72 C178.34 8.71 183.7 10.79 189 13 C189 13.66 189 14.32 189 15 C190.07 15.17 190.07 15.17 191.17 15.34 C194.19 16.04 196.56 17.13 199.31 18.56 C200.2 19.02 201.08 19.47 201.99 19.94 C202.65 20.29 203.32 20.64 204 21 C204 21.66 204 22.32 204 23 C204.57 23.11 205.14 23.22 205.73 23.34 C208.25 24.07 210.06 25.14 212.25 26.56 C213.31 27.25 213.31 27.25 214.39 27.94 C214.92 28.29 215.45 28.64 216 29 C216 29.66 216 30.32 216 31 C216.73 31.26 217.45 31.51 218.2 31.77 C221.16 33.07 223.31 34.6 225.81 36.62 C226.6 37.26 227.39 37.89 228.21 38.54 C228.8 39.02 229.39 39.5 230 40 C230 40.66 230 41.32 230 42 C232.47 42.99 232.47 42.99 235 44 C235 44.66 235 45.32 235 46 C235.9 46.43 235.9 46.43 236.81 46.88 C239 48 239 48 242 50 C242 50.66 242 51.32 242 52 C242.96 52.4 242.96 52.4 243.94 52.81 C246 54 246 54 247 57 C247.99 57.33 248.98 57.66 250 58 C251.37 59.64 252.69 61.31 254 63 C254.77 63.77 255.54 64.54 256.34 65.33 C258.95 67.95 261.33 70.65 263.69 73.5 C264.45 74.42 265.22 75.34 266.01 76.28 C268 79 268 79 269.08 81.78 C269.38 82.51 269.69 83.25 270 84 C270.99 84.33 271.98 84.66 273 85 C274.75 87.18 276.35 89.33 277.94 91.62 C278.58 92.53 278.58 92.53 279.24 93.46 C281.4 96.53 283.38 99.61 285.19 102.9 C286.65 106.05 286.65 106.05 289 107 C289.97 108.8 290.88 110.64 291.75 112.5 C293.7 116.53 295.73 120.22 298.31 123.88 C300.65 127.22 301.79 129.83 302 134 C302.66 134 303.32 134 304 134 C307.96 141.46 311.03 149.1 314 157 C315.4 160.57 316.93 163.89 318.91 167.19 C321.11 171.02 322.53 174.92 323.88 179.12 C324.25 180.28 324.25 180.28 324.64 181.45 C326.9 188.47 328.91 195.57 330.89 202.67 C332.11 207.02 333.39 211.24 335.06 215.44 C338.44 224.27 340.03 233.77 342 243 C342.3 244.39 342.61 245.77 342.91 247.16 C344.49 254.59 345.58 261.99 346.35 269.54 C346.71 273.4 346.71 273.4 348 277 C350.36 292.07 350.3 307.48 350.27 322.69 C350.27 324.89 350.27 327.09 350.27 329.3 C350.27 333.87 350.27 338.45 350.26 343.03 C350.25 348.83 350.26 354.63 350.27 360.44 C350.28 364.97 350.27 369.51 350.27 374.05 C350.27 376.18 350.27 378.32 350.27 380.46 C350.34 418.32 350.34 418.32 347 425 C346.73 426.72 346.51 428.44 346.32 430.16 C346.19 431.2 346.07 432.24 345.94 433.32 C345.69 435.5 345.44 437.68 345.19 439.86 C344.58 444.99 343.91 449.97 342.55 454.96 C341.89 457.42 341.33 459.9 340.78 462.38 C340.57 463.32 340.36 464.26 340.14 465.23 C339.71 467.17 339.28 469.11 338.86 471.04 C337.79 475.79 336.67 480.42 335 485 C334.34 485 333.68 485 333 485 C332.98 485.8 332.98 485.8 332.96 486.62 C332.44 495.18 329.73 502.95 327 511 C326.71 511.86 326.43 512.71 326.13 513.6 C325.22 516.3 324.3 518.99 323.38 521.69 C322.94 522.96 322.94 522.96 322.5 524.26 C321.02 528.49 319.46 532.23 317 536 C315 540.37 313.32 544.82 311.62 549.31 C309.43 555.08 306.89 560.55 304 566 C303.34 566 302.68 566 302 566 C301.77 566.97 301.55 567.95 301.32 568.95 C299.97 573.67 297.5 577.6 294.94 581.75 C294.03 583.24 293.12 584.74 292.21 586.23 C291.81 586.89 291.41 587.54 291 588.21 C289.85 590.14 289.85 590.14 289 593 C288.41 593.58 287.82 594.16 287.22 594.75 C284.48 597.52 282.53 600.64 280.5 603.94 C277.87 608.17 275.2 612.17 272 616 C271.34 616 270.68 616 270 616 C269.78 616.69 269.56 617.38 269.33 618.09 C267.66 621.73 265.3 624.51 262.69 627.5 C262.21 628.06 261.74 628.61 261.25 629.18 C258.31 632.61 255.21 635.82 252 639 C250.97 640.31 249.96 641.64 249 643 C248.34 643 247.68 643 247 643 C246.73 643.64 246.46 644.28 246.19 644.94 C245 647 245 647 242 648 C242 648.66 242 649.32 242 650 C237.25 654 237.25 654 235 654 C234.67 654.99 234.34 655.98 234 657 C232.68 657.33 231.36 657.66 230 658 C229.67 658.99 229.34 659.98 229 661 C226.57 663.04 226.57 663.04 223.56 665.19 C222.57 665.9 221.59 666.62 220.57 667.36 C218 669 218 669 216 669 C215.67 669.99 215.34 670.98 215 672 C213.26 673.39 213.26 673.39 211.12 674.69 C210.43 675.12 209.73 675.56 209.01 676.01 C207 677 207 677 204 677 C204 677.66 204 678.32 204 679 C199.15 681.61 194.23 683.36 189 685 C189 685.66 189 686.32 189 687 C170.69 694.2 154.24 700.17 134.38 700.12 C133.1 700.12 131.82 700.13 130.5 700.13 C126.95 700.13 123.39 700.13 119.83 700.12 C115.97 700.12 112.1 700.12 108.24 700.12 C101.46 700.12 94.68 700.12 87.9 700.12 C77.82 700.11 67.75 700.11 57.67 700.11 C40.71 700.12 23.76 700.11 6.81 700.11 C-9.98 700.1 -26.77 700.1 -43.56 700.09 C-44.6 700.09 -45.64 700.09 -46.72 700.09 C-52.02 700.09 -57.32 700.09 -62.62 700.09 C-100.16 700.09 -137.7 700.08 -175.24 700.08 C-211.72 700.07 -248.19 700.06 -284.67 700.05 C-286.96 700.05 -289.25 700.05 -291.55 700.05 C-310.18 700.05 -328.81 700.05 -347.45 700.05 C-433.63 700.04 -519.82 700.02 -606 700 C-606 551.5 -606 403 -606 250 C-573 250 -540 250 -506 250 C-506 396.85 -506 543.7 -506 695 C-339.02 695 -172.04 695 0 695 C0 656.06 0 617.12 0 577 C54.31 576.69 54.31 576.69 71.41 576.61 C76.5 576.58 76.5 576.58 81.6 576.53 C83.85 576.52 86.11 576.51 88.36 576.5 C91.79 576.49 95.22 576.46 98.65 576.43 C99.64 576.43 100.64 576.44 101.66 576.44 C109.41 576.33 116.46 574.87 123.64 571.91 C126.25 570.9 128.23 570.84 131 571 C131 570.34 131 569.68 131 569 C132.27 568.33 133.54 567.66 134.81 567 C135.52 566.63 136.23 566.26 136.96 565.88 C139 565 139 565 142 565 C142 564.34 142 563.68 142 563 C142.68 562.69 143.35 562.37 144.05 562.05 C148.75 559.79 152.42 557.86 156 554 C156.99 554 157.98 554 159 554 C159 553.01 159 552.02 159 551 C159.99 550.67 160.98 550.34 162 550 C163.18 548.85 164.36 547.69 165.5 546.5 C167.16 544.84 168.94 543.37 170.75 541.88 C175.84 537.49 179.88 532.28 184 527 C184.66 527 185.32 527 186 527 C186.29 526.4 186.58 525.8 186.88 525.19 C188 523 188 523 190 520 C190.66 520 191.32 520 192 520 C192.33 518.68 192.66 517.36 193 516 C193.66 516 194.32 516 195 516 C195.08 515.32 195.15 514.65 195.23 513.95 C196.23 510.12 198.16 507.07 200.25 503.75 C201.08 502.4 201.9 501.05 202.73 499.7 C203.13 499.06 203.52 498.41 203.93 497.75 C206.08 494.23 208.08 490.65 210 487 C210.32 486.39 210.64 485.79 210.97 485.17 C212.07 483.05 213.16 480.93 214.25 478.81 C214.6 478.13 214.96 477.46 215.32 476.76 C217.31 472.83 218.53 469.44 219 465 C219.66 465 220.32 465 221 465 C221.08 464.05 221.16 463.1 221.25 462.12 C221.83 457.96 223.4 454.41 225.02 450.55 C226.22 447.42 226.92 444.3 227.57 441.01 C228 439 228 439 229 436.06 C230.15 432.55 230.81 429.05 231.5 425.43 C232 423 232 423 233 419.69 C234.21 415.22 234.82 410.76 235.44 406.18 C236.01 402.97 236.94 400.08 238 397 C239.01 390.97 239.11 385.11 239 379 C239.66 379 240.32 379 241 379 C240.91 371.35 240.8 363.71 240.68 356.06 C240.64 353.47 240.61 350.88 240.58 348.28 C240.59 322.16 240.59 322.16 235.72 296.63 C234.61 292.57 234.12 288.44 233.54 284.28 C232.84 280.02 231.75 275.91 230.59 271.75 C229.95 268.77 229.9 266.05 230 263 C229.34 263 228.68 263 228 263 C227.74 261.75 227.74 261.75 227.48 260.47 C226.18 254.42 224.73 248.94 222.03 243.37 C220.79 240.51 219.97 237.62 219.12 234.62 C217.5 229.11 215.28 224.39 212.37 219.44 C211 217 211 217 210.01 214.5 C208.54 210.87 206.42 207.71 204.34 204.4 C203.12 202.21 202.46 200.44 202 198 C201.34 198 200.68 198 200 198 C199.69 197.37 199.39 196.74 199.07 196.09 C193.24 184.69 185.09 174.98 176.36 165.67 C175 164 175 164 175 162 C174.44 161.94 173.89 161.88 173.31 161.81 C170.01 160.65 168.28 158.6 166 156 C166 155.34 166 154.68 166 154 C165.01 154 164.02 154 163 154 C161.81 152.84 160.62 151.68 159.48 150.48 C152.09 143.09 140.88 136.29 131 133 C131 132.34 131 131.68 131 131 C130.16 130.85 130.16 130.85 129.3 130.7 C124.33 129.78 119.66 128.56 114.86 126.96 C105.71 124.33 96.77 124.41 87.3 124.43 C85.42 124.41 83.54 124.4 81.66 124.38 C76.73 124.35 71.8 124.33 66.87 124.32 C59.97 124.3 53.06 124.26 46.16 124.21 C42.5 124.19 38.83 124.17 35.17 124.16 C33.46 124.16 31.75 124.15 30.03 124.14 C29.32 124.14 28.6 124.14 27.85 124.14 C18.54 124.09 9.32 123.47 0 123 C0 82.41 0 41.82 0 0 Z " fill="#FEFEFE" transform="translate(668,190)"/>
<path d="M0 0 C33 0 66 0 100 0 C100 148.5 100 297 100 450 C67 450 34 450 0 450 C0 301.5 0 153 0 0 Z " fill="#FFFFFF" transform="translate(215,335)"/>
<path d="M0 0 C33 0 66 0 100 0 C100 148.5 100 297 100 450 C67 450 34 450 0 450 C0 301.5 0 153 0 0 Z " fill="#FFFFFF" transform="translate(367,265)"/>
<path d="M0 0 C33 0 66 0 100 0 C100 148.5 100 297 100 450 C67 450 34 450 0 450 C0 301.5 0 153 0 0 Z " fill="#FFFFFF" transform="translate(518,190)"/>
<path d="M0 0 C12.91 -0.05 25.82 -0.08 38.73 -0.1 C44.72 -0.11 50.72 -0.13 56.72 -0.15 C62.51 -0.17 68.31 -0.18 74.11 -0.19 C76.31 -0.19 78.51 -0.2 80.71 -0.21 C118.31 -0.39 118.31 -0.39 132 8 C134.58 9.33 137.2 10.6 139.81 11.88 C147.26 15.56 154.07 19.06 160 25 C161.8 26.52 163.61 28.02 165.44 29.5 C166.36 30.25 167.29 31.01 168.25 31.78 C170.04 33.23 171.86 34.66 173.69 36.07 C175.75 37.79 177.06 39.21 178.5 41.44 C179.96 43.69 181.4 45.4 183.33 47.3 C186.28 50.29 188.73 53.42 191.19 56.81 C191.66 57.46 192.14 58.12 192.62 58.79 C200.89 70.3 207.98 82.25 214.07 95.04 C214.99 96.98 215.93 98.91 216.88 100.85 C223.04 113.66 227.42 126.84 231.12 140.56 C231.63 142.38 231.63 142.38 232.14 144.23 C235.69 157.23 238.47 169.99 240.12 183.38 C240.29 184.67 240.46 185.96 240.64 187.3 C242.4 201.19 243.2 215 243.19 229 C243.19 229.66 243.19 230.32 243.19 231.01 C243.18 245.76 242.2 260.4 240 275 C239.67 275 239.34 275 239 275 C239 269.06 239 263.12 239 257 C239.66 257 240.32 257 241 257 C240.91 249.35 240.8 241.71 240.68 234.06 C240.64 231.47 240.61 228.88 240.58 226.28 C240.59 200.16 240.59 200.16 235.72 174.63 C234.61 170.57 234.12 166.44 233.54 162.28 C232.84 158.02 231.75 153.91 230.59 149.75 C229.95 146.77 229.9 144.05 230 141 C229.34 141 228.68 141 228 141 C227.83 140.17 227.66 139.33 227.48 138.47 C226.18 132.42 224.73 126.94 222.03 121.37 C220.79 118.51 219.97 115.62 219.12 112.62 C217.5 107.11 215.28 102.39 212.37 97.44 C211 95 211 95 210.01 92.5 C208.54 88.87 206.42 85.71 204.34 82.4 C203.12 80.21 202.46 78.44 202 76 C201.34 76 200.68 76 200 76 C199.54 75.05 199.54 75.05 199.07 74.09 C193.24 62.69 185.09 52.98 176.36 43.67 C175 42 175 42 175 40 C174.44 39.94 173.89 39.88 173.31 39.81 C170.01 38.65 168.28 36.6 166 34 C166 33.34 166 32.68 166 32 C165.01 32 164.02 32 163 32 C161.81 30.84 160.62 29.68 159.48 28.48 C152.09 21.09 140.88 14.29 131 11 C131 10.34 131 9.68 131 9 C130.44 8.9 129.88 8.8 129.3 8.7 C124.33 7.78 119.66 6.56 114.86 4.96 C105.71 2.33 96.77 2.41 87.3 2.43 C85.42 2.41 83.54 2.4 81.66 2.38 C76.73 2.35 71.8 2.33 66.87 2.32 C59.97 2.3 53.06 2.26 46.16 2.21 C42.5 2.19 38.83 2.17 35.17 2.16 C23.42 2.12 11.73 1.68 0 1 C0 0.67 0 0.34 0 0 Z " fill="#070000" transform="translate(668,312)"/>
<path d="M0 0 C18.18 -1.15 35.54 6.12 52 13 C52 13.66 52 14.32 52 15 C52.72 15.11 53.43 15.22 54.17 15.34 C57.19 16.04 59.56 17.13 62.31 18.56 C63.64 19.25 63.64 19.25 64.99 19.94 C65.98 20.47 65.98 20.47 67 21 C67 21.66 67 22.32 67 23 C67.57 23.11 68.14 23.22 68.73 23.34 C71.25 24.07 73.06 25.14 75.25 26.56 C75.96 27.02 76.66 27.47 77.39 27.94 C77.92 28.29 78.45 28.64 79 29 C79 29.66 79 30.32 79 31 C79.73 31.26 80.45 31.51 81.2 31.77 C84.16 33.07 86.31 34.6 88.81 36.62 C90 37.57 90 37.57 91.21 38.54 C91.8 39.02 92.39 39.5 93 40 C93 40.66 93 41.32 93 42 C94.65 42.66 96.3 43.32 98 44 C98 44.66 98 45.32 98 46 C98.6 46.29 99.2 46.58 99.81 46.88 C102 48 102 48 105 50 C105 50.66 105 51.32 105 52 C105.64 52.27 106.28 52.54 106.94 52.81 C109 54 109 54 110 57 C111.49 57.5 111.49 57.5 113 58 C114.37 59.64 115.69 61.31 117 63 C117.77 63.77 118.54 64.54 119.34 65.33 C121.95 67.95 124.33 70.65 126.69 73.5 C127.84 74.88 127.84 74.88 129.01 76.28 C131 79 131 79 132.08 81.78 C132.38 82.51 132.69 83.25 133 84 C133.99 84.33 134.98 84.66 136 85 C137.75 87.18 139.35 89.33 140.94 91.62 C141.37 92.23 141.8 92.83 142.24 93.46 C144.4 96.53 146.38 99.61 148.19 102.9 C149.65 106.05 149.65 106.05 152 107 C152.97 108.8 153.88 110.64 154.75 112.5 C156.7 116.53 158.73 120.22 161.31 123.88 C163.65 127.22 164.79 129.83 165 134 C165.66 134 166.32 134 167 134 C170.45 140.51 173.29 147.1 175.86 154 C176.78 156.43 177.78 158.77 178.88 161.12 C180 164 180 164 179 167 C178.66 166.25 178.32 165.49 177.97 164.72 C171.51 150.51 164.99 136.45 157.13 122.96 C155.87 120.78 154.67 118.58 153.46 116.38 C150.31 110.69 146.67 105.37 143 100 C142.43 99.16 141.87 98.33 141.28 97.47 C133.39 86.01 124.85 75.52 115.31 65.41 C113.57 63.53 111.91 61.58 110.25 59.62 C107.44 56.38 104.4 53.59 101.12 50.82 C99.69 49.6 98.3 48.33 96.94 47.02 C84.4 35.07 69.22 26.1 54 18 C53.17 17.53 52.34 17.07 51.49 16.59 C36.06 8.24 17.36 2.95 0 1 C0 0.67 0 0.34 0 0 Z " fill="#000000" transform="translate(805,190)"/>
<path d="M0 0 C1.18 3.53 0.52 4.48 -0.98 7.72 C-2.24 10.54 -3.3 13.42 -4.38 16.31 C-6.57 22.08 -9.11 27.55 -12 33 C-12.66 33 -13.32 33 -14 33 C-14.34 34.46 -14.34 34.46 -14.68 35.95 C-16.03 40.67 -18.5 44.6 -21.06 48.75 C-21.97 50.24 -22.88 51.74 -23.79 53.23 C-24.19 53.89 -24.59 54.54 -25 55.21 C-26.15 57.14 -26.15 57.14 -27 60 C-27.59 60.58 -28.18 61.16 -28.78 61.75 C-31.52 64.52 -33.47 67.64 -35.5 70.94 C-38.13 75.17 -40.8 79.17 -44 83 C-44.66 83 -45.32 83 -46 83 C-46.22 83.69 -46.44 84.38 -46.67 85.09 C-48.34 88.73 -50.7 91.51 -53.31 94.5 C-53.79 95.06 -54.26 95.61 -54.75 96.18 C-57.69 99.61 -60.79 102.82 -64 106 C-65.03 107.31 -66.04 108.64 -67 110 C-67.66 110 -68.32 110 -69 110 C-69.27 110.64 -69.54 111.28 -69.81 111.94 C-71 114 -71 114 -74 115 C-74 115.66 -74 116.32 -74 117 C-78.75 121 -78.75 121 -81 121 C-81.5 122.49 -81.5 122.49 -82 124 C-83.32 124.33 -84.64 124.66 -86 125 C-86.5 126.49 -86.5 126.49 -87 128 C-89.43 130.04 -89.43 130.04 -92.44 132.19 C-93.43 132.9 -94.41 133.62 -95.43 134.36 C-98 136 -98 136 -100 136 C-100.33 136.99 -100.66 137.98 -101 139 C-102.74 140.39 -102.74 140.39 -104.88 141.69 C-105.57 142.12 -106.27 142.56 -106.99 143.01 C-109 144 -109 144 -112 144 C-112 144.66 -112 145.32 -112 146 C-116.85 148.61 -121.77 150.36 -127 152 C-127 152.66 -127 153.32 -127 154 C-160.69 167.25 -160.69 167.25 -174.44 167.06 C-175.3 167.05 -176.17 167.04 -177.06 167.04 C-178.02 167.02 -178.02 167.02 -179 167 C-179 166.67 -179 166.34 -179 166 C-178.43 165.91 -177.85 165.83 -177.26 165.74 C-157.69 162.5 -139.02 156.66 -121.71 146.95 C-120.18 146.1 -118.62 145.28 -117.07 144.47 C-97.53 134.26 -79.42 119.41 -64.62 103.19 C-63.9 102.39 -63.9 102.39 -63.16 101.58 C-61.77 100.06 -60.39 98.53 -59 97 C-58.37 96.31 -57.73 95.61 -57.08 94.9 C-48.11 84.89 -40.42 73.97 -33.11 62.71 C-32.13 61.19 -31.13 59.68 -30.13 58.17 C-18.16 39.77 -9.02 19.96 0 0 Z " fill="#000000" transform="translate(984,723)"/>
<path d="M0 0 C0.66 0 1.32 0 2 0 C-1.66 7.98 -8.31 14.46 -14.19 20.88 C-14.69 21.42 -15.18 21.97 -15.7 22.53 C-18.6 25.66 -21.52 28.51 -25 31 C-25.66 31 -26.32 31 -27 31 C-27 31.66 -27 32.32 -27 33 C-30.54 36.05 -33.91 38.71 -38 41 C-38.59 41.35 -39.19 41.71 -39.8 42.07 C-44.75 45 -44.75 45 -47 45 C-47.33 45.99 -47.66 46.98 -48 48 C-48.64 48.19 -49.28 48.39 -49.93 48.59 C-50.76 48.85 -51.59 49.11 -52.44 49.38 C-53.26 49.63 -54.08 49.89 -54.93 50.15 C-57.18 50.81 -57.18 50.81 -58 53 C-60.4 53.76 -62.75 54.41 -65.19 55 C-70.45 56.27 -70.45 56.27 -75.56 58.05 C-80.36 59.38 -84.91 59.26 -89.87 59.23 C-91.5 59.23 -91.5 59.23 -93.15 59.23 C-96.73 59.23 -100.3 59.21 -103.87 59.2 C-106.35 59.19 -108.83 59.19 -111.31 59.19 C-117.83 59.18 -124.35 59.16 -130.87 59.14 C-137.52 59.12 -144.18 59.11 -150.84 59.1 C-163.89 59.08 -176.95 59.04 -190 59 C-190 58.34 -190 57.68 -190 57 C-189.16 57 -189.16 57 -188.31 56.99 C-174.72 56.93 -161.13 56.86 -147.54 56.76 C-140.97 56.72 -134.4 56.68 -127.83 56.65 C-121.48 56.63 -115.13 56.59 -108.78 56.54 C-106.37 56.52 -103.95 56.51 -101.53 56.5 C-98.14 56.49 -94.74 56.46 -91.35 56.43 C-89.86 56.43 -89.86 56.43 -88.35 56.44 C-80.59 56.33 -73.54 54.87 -66.36 51.91 C-63.75 50.9 -61.77 50.84 -59 51 C-59 50.34 -59 49.68 -59 49 C-57.73 48.33 -56.46 47.66 -55.19 47 C-54.48 46.63 -53.77 46.26 -53.04 45.88 C-51 45 -51 45 -48 45 C-48 44.34 -48 43.68 -48 43 C-47.32 42.69 -46.65 42.37 -45.95 42.05 C-41.25 39.79 -37.58 37.86 -34 34 C-33.01 34 -32.02 34 -31 34 C-31 33.01 -31 32.02 -31 31 C-30.01 30.67 -29.02 30.34 -28 30 C-26.82 28.85 -25.64 27.69 -24.5 26.5 C-22.84 24.84 -21.06 23.37 -19.25 21.88 C-14.16 17.49 -10.12 12.28 -6 7 C-5.34 7 -4.68 7 -4 7 C-3.71 6.4 -3.42 5.8 -3.12 5.19 C-2 3 -2 3 0 0 Z " fill="#040000" transform="translate(858,710)"/>
<path d="M0 0 C0.33 0 0.66 0 1 0 C0.95 13.43 -2.62 26.1 -6 39 C-6.24 39.94 -6.49 40.89 -6.74 41.86 C-11.66 60.7 -18.59 78.09 -27.99 95.13 C-29.46 97.86 -30.79 100.65 -32.12 103.44 C-34.88 109.03 -38.27 114.01 -42 119 C-43 116 -43 116 -42.05 113.89 C-41.55 113.09 -41.05 112.29 -40.54 111.46 C-39.99 110.56 -39.44 109.65 -38.87 108.72 C-38.27 107.76 -37.68 106.8 -37.06 105.81 C-31.55 96.74 -26.57 87.58 -22 78 C-21.61 77.27 -21.23 76.53 -20.83 75.77 C-19.65 73.26 -19.37 70.73 -19 68 C-18.34 68 -17.68 68 -17 68 C-16.92 67.05 -16.84 66.1 -16.75 65.12 C-16.17 60.96 -14.6 57.41 -12.98 53.55 C-11.78 50.42 -11.08 47.3 -10.43 44.01 C-10 42 -10 42 -9 39.06 C-7.85 35.55 -7.19 32.05 -6.5 28.43 C-6 26 -6 26 -5 22.69 C-3.79 18.22 -3.18 13.76 -2.56 9.18 C-2 5.97 -1.1 3.06 0 0 Z " fill="#070000" transform="translate(906,587)"/>
<path d="M0 0 C2 1 2 1 2.75 2.94 C2.97 3.78 3.2 4.62 3.44 5.49 C3.69 6.42 3.95 7.35 4.21 8.3 C4.47 9.3 4.73 10.29 5 11.31 C5.27 12.32 5.54 13.32 5.82 14.36 C7.4 20.39 8.76 26.38 9.64 32.57 C9.97 34.83 10.45 36.98 11 39.19 C12.24 44.47 12.74 49.85 13.3 55.24 C13.67 59.25 13.67 59.25 15 63 C15.51 66.23 15.76 69.49 16.06 72.75 C16.15 73.72 16.24 74.69 16.33 75.68 C17.22 86.12 17.2 96.53 17 107 C16.67 107 16.34 107 16 107 C15.93 105.19 15.93 105.19 15.85 103.34 C15.47 94.62 14.89 86.08 13.52 77.45 C12.98 73.85 12.61 70.25 12.25 66.62 C10.17 47.7 6.17 28.63 1.47 10.19 C0.58 6.65 0 3.68 0 0 Z " fill="#010101" transform="translate(1001,404)"/>
<path d="M0 0 C0.33 0 0.66 0 1 0 C1.22 11.47 1.12 22.82 0.06 34.25 C-0.02 35.2 -0.11 36.14 -0.2 37.12 C-0.86 43.72 -0.86 43.72 -2 46 C-2.27 47.72 -2.49 49.44 -2.68 51.16 C-2.81 52.2 -2.93 53.24 -3.06 54.32 C-3.31 56.5 -3.56 58.68 -3.81 60.86 C-4.42 65.99 -5.09 70.97 -6.45 75.96 C-7.11 78.42 -7.67 80.9 -8.22 83.38 C-8.43 84.32 -8.64 85.26 -8.86 86.23 C-9.29 88.17 -9.72 90.11 -10.14 92.04 C-11.21 96.79 -12.33 101.42 -14 106 C-14.66 106 -15.32 106 -16 106 C-15.11 99.61 -13.88 93.38 -12.32 87.12 C-7.4 67.35 -3.94 47.28 -2.36 26.96 C-2 23 -2 23 -1.5 21.04 C-0.95 18.81 -0.79 16.74 -0.68 14.45 C-0.64 13.61 -0.6 12.76 -0.56 11.89 C-0.52 11.02 -0.48 10.15 -0.44 9.25 C-0.39 8.36 -0.35 7.47 -0.31 6.56 C-0.2 4.37 -0.1 2.19 0 0 Z " fill="#010101" transform="translate(1017,569)"/>
<path d="M0 0 C1.21 3.51 0.77 5.76 -0.22 9.3 C-0.51 10.33 -0.8 11.37 -1.1 12.43 C-1.42 13.53 -1.73 14.62 -2.06 15.75 C-2.38 16.87 -2.7 17.98 -3.03 19.13 C-10.23 43.82 -10.23 43.82 -15 47 C-13.83 40.92 -12.13 35.4 -9.75 29.69 C-5.83 19.98 -2.87 10.06 0 0 Z " fill="#020202" transform="translate(1000,676)"/>
<path d="M0 0 C4.03 3.33 5.38 7.08 6.88 11.94 C7.12 12.71 7.37 13.49 7.63 14.29 C8.43 16.85 9.22 19.43 10 22 C10.29 22.93 10.58 23.87 10.87 24.83 C11.74 27.68 12.59 30.52 13.44 33.38 C13.71 34.27 13.98 35.17 14.26 36.09 C14.5 36.94 14.75 37.78 15 38.65 C15.21 39.39 15.43 40.14 15.66 40.9 C16.04 43.24 15.73 44.76 15 47 C14.65 45.77 14.3 44.53 13.93 43.26 C11.16 33.71 8.19 24.36 4.36 15.18 C2.32 10.2 1.02 5.28 0 0 Z " fill="#020202" transform="translate(985,357)"/>
<path d="" fill="#000000" transform="translate(0,0)"/>
<path d="" fill="#000000" transform="translate(0,0)"/>
</svg>
